<?xml version="1.0" ?><!DOCTYPE svg  PUBLIC '-//W3C//DTD SVG 1.1//EN'  'http://www.w3.org/Graphics/SVG/1.1/DTD/svg11.dtd'><svg enable-background="new 0 0 99.176 99.176" height="99.176px" id="Layer_1" version="1.1" viewBox="0 0 99.176 99.176" width="99.176px" xml:space="preserve" xmlns="http://www.w3.org/2000/svg" xmlns:xlink="http://www.w3.org/1999/xlink"><g><path d="M59.185,76.413c0.005-2.301-1.87-4.182-4.17-4.186l-7.224-0.012   c-0.755-0.002-1.382-0.627-1.382-1.387c0.002-0.779,0.631-1.402,1.388-1.402l13.572,0.023c2.313,0.004,4.181-1.859,4.186-4.172   c0.003-2.301-1.857-4.176-4.173-4.18l-10.777-0.02c-0.768,0-1.386-0.631-1.383-1.391c0-0.775,0.621-1.404,1.387-1.402l15.449,0.027   c2.3,0.002,4.178-1.859,4.182-4.174c0.003-2.311-1.867-4.18-4.168-4.182l-15.449-0.027c-0.766-0.002-1.383-0.627-1.383-1.404   c0.002-0.758,0.621-1.385,1.388-1.385l35.562,0.061c2.312,0.004,4.18-1.871,4.185-4.171c0.005-2.311-1.856-4.178-4.17-4.181   l-49.498-0.085l4.021-9.424c1.229-2.834,2.227-6.108,0.744-8.503c-1.5-2.385-4.795-2.978-7.369-1.333   c0,0-8.844,14.039-14.742,17.91C13.446,41.283,8.823,47.562,8.803,59.319C8.771,78.78,23.79,80.546,28.28,80.554L55,80.601   C57.3,80.603,59.181,78.724,59.185,76.413z" fill="#AD9A9F" stroke="#58595B" stroke-miterlimit="10"/><path d="M59.185,76.413   c0.005-2.301-1.87-4.182-4.17-4.186l-7.224-0.012c-0.755-0.002-1.382-0.627-1.382-1.387c0.002-0.779,0.631-1.402,1.388-1.402   l13.572,0.023c2.313,0.004,4.181-1.859,4.186-4.172c0.003-2.301-1.857-4.176-4.173-4.18l-10.777-0.02   c-0.768,0-1.386-0.631-1.383-1.391c0-0.775,0.621-1.404,1.387-1.402l15.449,0.027c2.3,0.002,4.178-1.859,4.182-4.174   c0.003-2.311-1.867-4.18-4.168-4.182l-15.449-0.027c-0.766-0.002-1.383-0.627-1.383-1.404c0.002-0.758,0.621-1.385,1.388-1.385   l35.562,0.061c2.312,0.004,4.18-1.871,4.185-4.171c0.005-2.311-1.856-4.178-4.17-4.181l-49.498-0.085l4.021-9.424   c1.229-2.834,2.227-6.108,0.744-8.503c-1.5-2.385-4.795-2.978-7.369-1.333c0,0-8.844,14.039-14.742,17.91   C13.446,41.283,8.823,47.562,8.803,59.319C8.771,78.78,23.79,80.546,28.28,80.554L55,80.601   C57.3,80.603,59.181,78.724,59.185,76.413z" fill="#FFFFFF" stroke="#58595B" stroke-miterlimit="10" stroke-width="3.4835"/><path d="M59.185,76.413   c0.005-2.301-1.87-4.182-4.17-4.186l-7.224-0.012c-0.755-0.002-1.382-0.627-1.382-1.387c0.002-0.779,0.631-1.402,1.388-1.402   l13.572,0.023c2.313,0.004,4.181-1.859,4.186-4.172c0.003-2.301-1.857-4.176-4.173-4.18l-10.777-0.02   c-0.768,0-1.386-0.631-1.383-1.391c0-0.775,0.621-1.404,1.387-1.402l15.449,0.027c2.3,0.002,4.178-1.859,4.182-4.174   c0.003-2.311-1.867-4.18-4.168-4.182l-15.449-0.027c-0.766-0.002-1.383-0.627-1.383-1.404c0.002-0.758,0.621-1.385,1.388-1.385   l35.562,0.061c2.312,0.004,4.18-1.871,4.185-4.171c0.005-2.311-1.856-4.178-4.17-4.181l-49.498-0.085l4.021-9.424   c1.229-2.834,2.227-6.108,0.744-8.503c-1.5-2.385-4.795-2.978-7.369-1.333c0,0-8.844,14.039-14.742,17.91   C13.446,41.283,8.823,47.562,8.803,59.319C8.771,78.78,23.79,80.546,28.28,80.554L55,80.601   C57.3,80.603,59.181,78.724,59.185,76.413z" fill="#FFFFFF" stroke="#58595B" stroke-linecap="round" stroke-linejoin="round" stroke-miterlimit="10"/></g></svg>