<svg xmlns="http://www.w3.org/2000/svg" id="Layer_1" data-name="Layer 1" width="155" height="20" viewBox="0 0 155 20">
    <defs>
    <style>.cls-1{fill:#fff;}</style>
    </defs>
    <title>Falcon-IO-Logo-2016</title>
    <polygon class="cls-1" points="45.25 9.56 40.25 9.56 40.25 6.56 46.25 6.56 46.25 2.56 36.25 2.56 36.25 19.56 40.25 19.56 40.25 12.56 45.25 12.56 45.25 9.56"/>
    <path class="cls-1" d="M52,2.56l-6.35,17h4.56l1.14-3H57.3l1.07,3H63l-6.22-17H52Zm0.53,11,1.77-6h0l1.75,6H52.57Z"/>
    <polygon class="cls-1" points="68.25 2.56 64.25 2.56 64.25 19.56 74.25 19.56 74.25 15.56 68.25 15.56 68.25 2.56"/>
    <path class="cls-1" d="M77.13,5.17a8.64,8.64,0,0,0-2.43,6,8.08,8.08,0,0,0,2.65,6.24,9.08,9.08,0,0,0,6.15,2.43,9.87,9.87,0,0,0,3.74-.77V14a5,5,0,0,1-3.66,1.75,4.27,4.27,0,0,1-4.45-4.49,4.32,4.32,0,0,1,4.37-4.58,4.77,4.77,0,0,1,3.73,1.82V3.33A8.9,8.9,0,0,0,77.13,5.17Z"/>
    <path class="cls-1" d="M98.26,2.39c-4.75,0-9.13,3.5-9.13,8.5a9.13,9.13,0,0,0,18.27,0C107.39,5.89,103,2.39,98.26,2.39Zm0,13.45a4.73,4.73,0,0,1-4.67-4.93,4.68,4.68,0,0,1,9.33,0A4.73,4.73,0,0,1,98.26,15.84Z"/>
    <polygon class="cls-1" points="121.25 12.56 121.51 12.56 113.65 2.56 109.25 2.56 109.25 19.56 113.25 19.56 113.25 9.56 113.69 9.56 121.55 19.56 125.25 19.56 125.25 2.56 121.25 2.56 121.25 12.56"/>
    <path class="cls-1" d="M135.25,19.56h-1v-17h1v17Z"/>
    <path class="cls-1" d="M155,11.15a8.59,8.59,0,0,1-17.17,0A8.59,8.59,0,0,1,155,11.15Zm-1.44,0a7.15,7.15,0,1,0-14.3,0A7.15,7.15,0,1,0,153.56,11.15Z"/>
    <path class="cls-1" d="M131.11,18.33a1.16,1.16,0,1,1-2.32,0A1.16,1.16,0,0,1,131.11,18.33Z"/>
    <path class="cls-1" d="M31.41,19.35a14,14,0,0,1-8-5.5c-0.46.22-2.07,1.2-6.66,0.9a12.29,12.29,0,0,1-8.47-4.66,69.79,69.79,0,0,0,13.36,0,15.11,15.11,0,0,1-.36-1.63c-1.71,0-9.27.1-13.81-1.19C2.38,5.86,0,0,0,0A229.69,229.69,0,0,1,26.41,3.58a1.6,1.6,0,0,1,1.33,1.54c0,7,2.17,11,4.22,13.53C32.29,19.09,32.16,19.54,31.41,19.35Z"/>
</svg>
